<?xml version="1.0" encoding="utf-8"?>
<!-- Generator: Adobe Illustrator 28.0.0, SVG Export Plug-In . SVG Version: 6.00 Build 0)  -->
<svg version="1.1" id="Layer_1" xmlns="http://www.w3.org/2000/svg" xmlns:xlink="http://www.w3.org/1999/xlink" x="0px" y="0px"
	 viewBox="0 0 598.2 136.6" style="enable-background:new 0 0 598.2 136.6;" xml:space="preserve">
<style type="text/css">
	.st0{fill:#FFFFFF;}
	.st1{fill:url(#SVGID_1_);}
</style>
<g>
	<g>
		<g>
			<path class="st0" d="M78.7,114.7c0,2.1-0.7,3.8-2,4.9c-1.3,1.2-3.3,1.9-5.6,1.9c-2,0-4.1-0.4-5.7-1.2c-1.6-0.8-2.7-2-2.7-3.3
				v-3.9h0.7c0.8,4.9,3.3,6.9,7.4,6.9c1.3,0,2.5-0.3,3.4-1c0.9-0.6,1.5-1.6,1.5-2.8c0-2.2-1.3-3.5-4-5.1l-4.5-2.6
				c-3.1-1.9-4.3-3.6-4.3-6.3c0-1.9,0.8-3.5,2-4.6c1.2-1.1,3-1.7,5.2-1.7c1.8,0,3.8,0.4,5.3,1.2c1.5,0.7,2.6,1.9,2.6,3.2v3.9h-0.6
				c-0.9-4.9-3.1-6.9-7.3-6.9c-1.1,0-2.2,0.4-3,1c-0.8,0.6-1.3,1.6-1.3,2.7c0,1.1,0.3,1.9,1,2.6c0.7,0.7,1.7,1.5,3,2.2l4.5,2.7
				c1.6,0.9,2.7,1.7,3.5,2.6C78.3,112.2,78.7,113.4,78.7,114.7z"/>
			<path class="st0" d="M96.6,112.8H85.5c0,2,0.4,3.8,1.3,5c0.9,1.2,2.1,2,3.6,2c2.4,0,3.9-1.1,5.2-2.9l0.7,0.6
				c-1.6,2.8-3.8,3.9-6.6,3.9c-2.6,0-4.5-1.1-5.8-2.7s-1.9-3.9-1.9-6.3c0-2.5,0.6-4.8,1.9-6.4s3.1-2.6,5.4-2.6c5,0,7.3,2.9,7.3,8.1
				L96.6,112.8z M93.2,111.3c0-4.3-1.3-6.6-3.9-6.6c-1.2,0-2.1,0.7-2.7,1.9c-0.7,1.2-1.1,2.8-1.1,4.7H93.2z"/>
			<path class="st0" d="M104.5,120.9h-3.4V108c0-2.2-0.3-3.6-2.5-3.6h-0.4v-0.7h2.9c1.9,0,2.7,0.5,3.1,1.6h0.2c0.7-0.9,2.2-2,4.4-2
				c0.7,0,1.7,0.2,2.2,0.6c0.5,0.4,0.8,0.9,1.3,1.6l-1.5,1.1c-0.6-0.7-1.6-1.1-2.9-1.1c-1.5,0-2.7,0.7-3.5,1.9V120.9z"/>
			<path class="st0" d="M117.3,120.9h-1.9V101c0-2.2-0.3-3.7-2.6-3.7h-0.7v-0.7h3.3c1.3,0,2.1,0.2,2.6,0.8c0.6,0.7,0.7,1.9,0.7,3.6
				v3.3c1.2-0.6,2.6-1.1,4.6-1.1c2.4,0,4.1,1,5.3,2.6c1.1,1.6,1.7,3.9,1.7,6.4c0,2.5-0.6,4.7-1.7,6.3c-1.1,1.6-2.7,2.7-4.9,2.7
				c-2.7,0-4.3-1.1-5-2.1h-0.2L117.3,120.9z M118.8,117.6c0.7,1.1,1.9,2.2,3.9,2.2c1.5,0,2.5-0.8,3.3-2.2c0.7-1.3,1-3.3,1-5.3
				c0-2.1-0.3-4-1.1-5.4c-0.8-1.3-1.9-2.2-3.5-2.2c-1.2,0-2.4,0.6-3.5,1.1V117.6z"/>
			<path class="st0" d="M167.7,120.9c-0.4,0.1-0.9,0.2-1.5,0.2c-0.8,0-2-0.1-3.1-0.8c-1.2-0.7-2.4-1.9-3.1-4l-1-2.4h-10.3l-2.9,7
				h-1.7l10.3-24.3h1.1l8.1,19.7c0.6,1.3,1.1,2.3,1.7,2.9c0.6,0.6,1.3,0.8,2.4,1V120.9z M158.3,112.4l-4.4-10.7l-4.6,10.7H158.3z"/>
			<path class="st0" d="M172.9,120.9h-3.3V101c0-2.2-0.4-3.7-2.6-3.7h-0.7v-0.7h3.3c1.3,0,2.1,0.2,2.6,0.8c0.5,0.7,0.7,1.9,0.7,3.6
				V120.9z"/>
			<path class="st0" d="M181.7,125.2c2.4,0,3.5-2.7,3.5-7.2V96.6h3.3V118c0,2.7-0.3,4.7-1.3,6c-1.1,1.3-2.8,1.9-5.4,1.9V125.2z"/>
			<path class="st0" d="M206.9,120.9H205l-1.3-1.7h-0.2c-0.8,1-2.4,2.1-5.2,2.1c-1.1,0-2.4-0.3-3.4-1.1c-1.1-0.8-1.9-2.1-1.9-4.1
				s1.1-3.3,2.8-4.1c1.7-0.8,4-1.1,6.6-1.1h1.1c0-2.5-0.4-4.1-1.1-5.1c-0.7-0.8-1.7-1.2-2.7-1.2c-2.1,0-3.5,0.7-4,3.1H194
				c0-1.3,0-2.4,0.9-3.3c0.4-0.4,1.3-0.8,2.3-1c1-0.2,2.1-0.3,3.3-0.3c1.6,0,3.3,0.3,4.5,1.3c1.2,1.1,2,3.1,2,6.4V120.9z
				 M203.6,112.4h-1.1c-3.7,0-5.9,1.5-5.9,3.7c0,1.2,0.4,2,1.1,2.6c0.6,0.6,1.5,0.8,2.4,0.8c1.8,0,2.7-1.1,3.5-2.2V112.4z"/>
			<path class="st0" d="M225.3,103.6l-9.9,15.8h9.9v1.5H211v-0.7l9.5-15.1h-4.2c-3.1,0-4.6,1.2-4.6,3.3H211v-1.9
				c0-0.7,0.1-1.5,0.6-2c0.4-0.6,1.2-0.9,2.5-0.9H225.3z"/>
			<path class="st0" d="M233,120.9h-3.3V108c0-2.2-0.3-3.6-2.6-3.6h-0.7v-0.7h3.3c1.3,0,2.1,0.1,2.6,0.8c0.5,0.7,0.7,1.8,0.7,3.6
				V120.9z M232.8,99.7c0,1-0.7,1.6-1.7,1.6c-1.1,0-2.1-1.1-2.1-2.4c0-1,0.7-1.6,1.7-1.6C231.9,97.4,232.8,98.5,232.8,99.7z"/>
			<path class="st0" d="M241.8,120.9h-3.4V108c0-2.2-0.3-3.6-2.5-3.6h-0.4v-0.7h2.9c1.9,0,2.7,0.5,3.1,1.6h0.2c0.7-0.9,2.2-2,4.4-2
				c0.7,0,1.7,0.2,2.2,0.6c0.5,0.4,0.8,0.9,1.3,1.6l-1.5,1.1c-0.6-0.7-1.6-1.1-2.9-1.1c-1.5,0-2.7,0.7-3.5,1.9V120.9z"/>
			<path class="st0" d="M265.4,120.9h-1.9l-1.3-1.7h-0.2c-0.8,1-2.4,2.1-5.2,2.1c-1.1,0-2.4-0.3-3.4-1.1c-1.1-0.8-1.9-2.1-1.9-4.1
				s1.1-3.3,2.8-4.1c1.7-0.8,4-1.1,6.6-1.1h1.1c0-2.5-0.4-4.1-1.1-5.1c-0.7-0.8-1.7-1.2-2.7-1.2c-2.1,0-3.5,0.7-4,3.1h-1.7
				c0-1.3,0-2.4,0.9-3.3c0.4-0.4,1.3-0.8,2.3-1c1-0.2,2.1-0.3,3.3-0.3c1.6,0,3.3,0.3,4.5,1.3c1.2,1.1,2,3.1,2,6.4V120.9z
				 M262.1,112.4h-1.1c-3.7,0-5.9,1.5-5.9,3.7c0,1.2,0.4,2,1.1,2.6c0.6,0.6,1.5,0.8,2.4,0.8c1.8,0,2.7-1.1,3.5-2.2V112.4z"/>
			<path class="st0" d="M273.8,105.1c1-0.9,2.6-1.8,4.8-1.8c1.6,0,3.1,0.3,4.3,1.3c1.2,1,2,2.7,2,5.3v11h-3.3v-11
				c0-1.8-0.5-3.1-1.2-3.9c-0.8-0.7-1.8-1.1-2.8-1.1c-1.5,0-2.7,0.9-3.7,1.9v14.1h-3.3V101c0-2.2-0.3-3.7-2.6-3.7h-0.7v-0.7h3.3
				c1.3,0,2.1,0.2,2.6,0.8c0.6,0.7,0.7,1.9,0.7,3.6V105.1z"/>
		</g>
		<g>
			<path class="st0" d="M333.4,105.1c-1.7,0-1.9,1-1.9,2.5V121h-8.7c-2.2,0-4.5-0.9-6.3-2.4s-3.1-3.5-3.1-5.9s1.2-4.6,3.2-6
				c2-1.4,5-2.2,8.6-2.2h8.8v0.6H333.4z M327.3,106.5c-2.2-0.7-4.7-0.6-6.6,0.5c-2,1.1-3.3,3-3.3,5.7c0,3.8,2,6.8,5.3,6.8h4.6V106.5
				z M322.2,99.3c0,1.1-0.9,2.1-2.1,2.1c-1.2,0-2.1-1-2.1-2.1c0-1.2,0.9-2.1,2.1-2.1C321.3,97.2,322.2,98.1,322.2,99.3z M327.5,99.3
				c0,1.1-1,2.1-2.1,2.1c-1.1,0-2.1-1-2.1-2.1c0-1.2,1-2.1,2.1-2.1C326.5,97.2,327.5,98.1,327.5,99.3z"/>
			<path class="st0" d="M343.7,105.1c-1.6,0-1.9,1-1.9,2.5v12.1h11.7v1.4h-11.7c0,3-1.4,4.8-3,5.9c-1.6,1.1-3.4,1.6-4.3,1.8
				c-0.3,0.1-0.6,0.1-0.6-0.1c-0.1-0.1,0-0.2,0.2-0.3c1.6-1,2.5-2.2,3-3.6c0.4-1.3,0.6-2.6,0.6-3.7v-16.6h6.6v0.6H343.7z"/>
			<path class="st0" d="M363.3,105.2c-1.7,0-1.9,1-1.9,2.5v5.2c0,2.5-1,4.5-2.3,5.8c-1.3,1.4-3.1,2.2-4.7,2.2h-3.1v-1.4h0.9
				c1.2,0,2.4-0.3,3.4-1.2c0.9-0.9,1.5-2.3,1.7-4.4v-9.4h6.7v0.6H363.3z M358.1,126.3c0,1.2-0.9,2.1-2.1,2.1c-1.2,0-2.1-1-2.1-2.1
				c0-1.1,0.9-2.1,2.1-2.1C357.2,124.2,358.1,125.2,358.1,126.3z M363.4,126.3c0,1.2-1,2.1-2.1,2.1c-1.1,0-2.1-1-2.1-2.1
				c0-1.1,1-2.1,2.1-2.1C362.4,124.2,363.4,125.2,363.4,126.3z"/>
			<path class="st0" d="M373.5,105.1c-1.6,0-1.9,1-1.9,2.5v12.1h6.8v1.4h-6.9c0,3-1.4,4.8-3,5.9c-1.6,1.1-3.4,1.6-4.3,1.8
				c-0.3,0.1-0.6,0.1-0.6-0.1c-0.1-0.1,0-0.2,0.2-0.3c1.6-1,2.5-2.2,3-3.6c0.4-1.3,0.6-2.6,0.6-3.7v-16.6h6.6v0.6H373.5z
				 M371.6,99.2c0,1.2-1,2.1-2.1,2.1c-1.1,0-2.1-1-2.1-2.1c0-1.1,1-2.1,2.1-2.1C370.6,97.2,371.6,98.1,371.6,99.2z"/>
			<path class="st0" d="M385.7,103.1c5.2,5.2,8.6,8.6,10.8,10.8c1.1,1.1,1.9,2,2.5,2.6l1.4,1.4c0.7,0.7,0.9,1,1.4,1.7h4.9v1.4h-4.1
				c0.7,1.9,0.7,3.6,0.4,5c-0.3,1.4-1,2.6-1.4,3.2c-0.2,0.3-0.3,0.4-0.4,0.4c-0.1,0-0.1-0.1-0.1-0.3c0.4-1.8,0.2-3.4-0.4-4.7
				c-0.6-1.3-1.5-2.2-2.2-3.1l-0.7-0.7h-21.7v-1.4h20.3l-11.5-11.4c-1.1-1.1-2-1.6-3.1-0.4l-0.4,0.4l-0.4-0.4L385.7,103.1z
				 M390,126.3c0,1.2-1,2.1-2.1,2.1c-1.1,0-2.1-1-2.1-2.1c0-1.1,1-2.1,2.1-2.1C389,124.2,390,125.2,390,126.3z"/>
			<path class="st0" d="M417.2,97.3c-2.2,0-2.5,1-2.5,2.5v13.4c0,2.4-0.7,4.3-2,5.7c-1.3,1.3-3,2.1-5,2.1h-3.2v-1.4h1
				c1.2,0,2.5-0.4,3.4-1.3c0.9-0.9,1.5-2.3,1.7-4.4V96.7h6.7V97.3z"/>
			<path class="st0" d="M426.3,97.3c-2.2,0-2.4,1-2.4,2.5V121h-4.2V96.7l6.6,0.1V97.3z"/>
			<path class="st0" d="M451.2,105.3c1,0.8,1,1.9,1,4.5h-0.7c-0.2-3-2.1-3.9-4.8-3.9c-3.8,0-5.4,2.6-5.4,6.6c0,2,0.4,3.7,1.3,5
				c0.9,1.3,2.2,2,4,2h22c1.2,0,2.4-0.3,3.4-1.2c0.9-0.9,1.5-2.3,1.7-4.4v-9.4h6.7v0.6h-0.6c-1.7,0-1.9,1-1.9,2.5v5.2
				c0,2.5-1,4.5-2.3,5.8c-1.3,1.4-3.1,2.2-4.7,2.2h-24.9c-2.7,0-4.9-1-6.4-2.5c-1.6-1.5-2.4-3.6-2.4-5.9c0-2.3,0.8-4.4,2.4-6
				c1.5-1.5,3.7-2.5,6.4-2.5C448.5,104.1,450.3,104.5,451.2,105.3z M461.3,126.4c0,1.1-1,2.1-2.1,2.1c-1.1,0-2.1-1-2.1-2.1
				c0-1.2,1-2.1,2.1-2.1C460.3,124.2,461.3,125.2,461.3,126.4z"/>
			<path class="st0" d="M490.1,105.1c-1.6,0-1.9,1-1.9,2.5v12.1h16.5v1.4h-16.5c0,3-1.4,4.8-3,5.9c-1.6,1.1-3.4,1.6-4.3,1.8
				c-0.3,0.1-0.6,0.1-0.6-0.1c-0.1-0.1,0-0.2,0.2-0.3c1.6-1,2.5-2.2,3-3.6c0.4-1.3,0.6-2.6,0.6-3.7v-16.6h6.6v0.6H490.1z"/>
			<path class="st0" d="M535,105c-1.7,0-1.9,1-1.9,2.5v6.4c0,2-0.7,3.6-2,4.9c-1.3,1.3-3.1,2.1-5.2,2.1c-0.9,0-2-0.2-3-0.7
				c-1-0.4-2-1.1-2.2-2.2c-1.1,1.8-3,2.7-4.9,2.7c-2,0.1-4.1-0.7-5.3-2.4c-1.3,1.3-2.8,2.5-5,2.5h-3v-1.4h0.8c1.2,0,2.4-0.4,3.4-1.3
				c0.9-0.9,1.5-2.3,1.7-4.4v-8.4h6.6v0.6h-0.5c-1.7,0-2,1-2,2.5v7.8c0,1.7,1.4,3.1,3.1,3.1c1.7,0,2.9-1.4,3.1-3.1V105h6.7v0.6h-0.6
				c-1.6,0-1.9,0.4-1.9,1.9v9.4c0.2,1.5,1.5,2.7,3,2.7c1.7,0,3.1-1.3,3.1-3.1v-12h6.6v0.6H535z"/>
		</g>
	</g>
	<linearGradient id="SVGID_1_" gradientUnits="userSpaceOnUse" x1="299.0844" y1="77.2228" x2="299.0844" y2="6.889">
		<stop  offset="1.783676e-04" style="stop-color:#5A595C"/>
		<stop  offset="0.2396" style="stop-color:#ADADAE"/>
		<stop  offset="0.4276" style="stop-color:#E8E8E8"/>
		<stop  offset="0.5171" style="stop-color:#FFFFFF"/>
	</linearGradient>
	<path class="st1" d="M591.9,14.2c-6.9,4.8-15,7.6-23.4,8.2L316,41.3c-6.3,0.5-11.9-4-12.9-10.2l-3.9-24.2l-3.9,24.2
		c-1,6.2-6.6,10.7-12.9,10.2L29.6,22.5c-8.4-0.6-16.5-3.4-23.4-8.2L4,12.7c7.3,7.4,16.9,12.2,27.3,13.5l243.9,30.8
		c8.4,0.5,16.2,7.9,21.2,16l2.7,4.3l2.7-4.3c5-8,12.8-15.4,21.2-15.9l243.9-30.8c10.3-1.3,20-6.1,27.3-13.5L591.9,14.2z"/>
</g>
</svg>
